<svg id="Layer_1" data-name="Layer 1" xmlns="http://www.w3.org/2000/svg" viewBox="0 0 122.88 121.21"><defs><style>.cls-1{fill-rule:evenodd;}</style></defs><title>scuba-diving</title><path class="cls-1" d="M100.07,67.24c-.44-10.1-3-13.34-6.11-13.38A59.88,59.88,0,0,1,93.86,80c3.5.24,5.78-3.94,6.21-12.77Zm18.27-47.48a4.54,4.54,0,1,1-4.53,4.53,4.53,4.53,0,0,1,4.53-4.53ZM109,0a7.23,7.23,0,1,1-7.22,7.22A7.22,7.22,0,0,1,109,0ZM18.12,87.85Zm45,2.47A10.29,10.29,0,1,1,52.83,100.6,10.29,10.29,0,0,1,63.11,90.32ZM9.66,69.89a6.14,6.14,0,0,1,3.09-2v-.34a63.9,63.9,0,0,1,1-10.52,16.18,16.18,0,0,1,4-9.2l.48-.5-1.43-.46c-2-62.7,96.25-54.49,94.79.4,0,.65,0,1.28-.11,1.88a14.68,14.68,0,0,1,2.37,8,55.7,55.7,0,0,1,1.06,10.4,46.07,46.07,0,0,1-1.05,10c-.1,5-1.71,8.52-4.59,10.91a12.08,12.08,0,0,1-4.78,2.41,43,43,0,0,1-8.84,15.58A43.87,43.87,0,0,1,81,117.25a41.53,41.53,0,0,1-17.13,3.8,35.7,35.7,0,0,1-16.47-3.92,35,35,0,0,1-28.06,2.07A30.84,30.84,0,0,1,6.85,111,26.13,26.13,0,0,1,.29,97.17C-.92,89,1.58,79.58,9.66,69.89Zm8.89-.56a.86.86,0,0,1,0,.8,56.09,56.09,0,0,0,.66,6.47,1,1,0,0,1,.13.78l.1.52c.72,5.21,3.6,7.5,7.89,7.89H43.43c10.35-.58,11.64-6.27,16.12-8.67a9.92,9.92,0,0,1,9.5.29c4.06,2.6,5.4,8.1,14.82,8.1H98.39c6.11.65,9.72-1.74,9.65-8.6a44.4,44.4,0,0,0,0-19.17c0-6.14-3.67-8.55-9.23-9H27.22c-4.23,1.18-7.11,3.86-7.75,9a56.23,56.23,0,0,0-.92,11.59ZM15.12,83.64C12.74,88,12,92,12.52,95.38A13.88,13.88,0,0,0,16,102.69a18.54,18.54,0,0,0,7.48,4.91,22.36,22.36,0,0,0,12.51.69C31.55,104,28.23,100.14,25.9,95.8A31.57,31.57,0,0,1,23.8,91a13,13,0,0,1-8.68-7.36Zm48,1.06a15.91,15.91,0,1,1-15.9,15.9,15.9,15.9,0,0,1,15.9-15.9Z"/></svg>